<svg width="128" height="128" viewBox="0 0 128 128" fill="none" xmlns="http://www.w3.org/2000/svg">
<g clip-path="url(#clip0_1_38)">
<path fill-rule="evenodd" clip-rule="evenodd" d="M0.96319 0.326889C0.442011 0.479926 0.392844 4.76877 0.779874 6.13349C1.20503 7.6317 3.00251 11.9501 3.47402 12.5861C4.67332 14.1991 6.04485 17.0293 6.64064 17.661C10.5409 21.7915 19.119 29.1529 19.2089 28.7777C19.2968 28.4013 17.8456 25.1045 17.5905 24.5827C17.3323 24.0616 15.1336 22.5093 11.8832 19.3142C11.1219 18.5673 10.1742 16.7921 10.1742 16.7921C10.1742 16.7921 10.81 16.7948 11.6347 17.8431C13.0611 19.653 16.9109 23.4477 17.1208 23.2104C17.3307 22.9731 16.4703 16.8899 16.4703 16.8899C16.4703 16.8899 11.1845 13.0252 9.20313 10.5686C7.22368 8.11317 4.85756 3.81662 4.39906 3.42537C3.94443 3.03646 2.44162 -0.109614 0.96319 0.326889ZM3.03531 14.4581C2.74271 14.522 3.33781 20.122 3.42285 20.6102C3.53777 21.2717 4.36893 22.5451 5.09273 23.4064C5.53614 23.936 21.0308 36.181 21.263 35.8807C21.4951 35.5805 19.6158 30.7337 19.3587 30.2501C19.1016 29.7665 6.99883 20.038 5.63198 18.169C4.3112 16.3593 4.00714 14.2466 3.03531 14.4581ZM5.14877 25.2911C5.01243 25.6253 6.03679 29.7268 6.71546 30.1345C7.39414 30.5421 21.5753 40.3499 21.7644 40.208C21.9535 40.0662 21.2923 37.552 21.1261 37.0625C20.9599 36.5729 8.56347 27.3421 7.32528 26.3956C6.17238 25.5136 5.28512 24.957 5.14877 25.2911ZM22.2289 44.3999C22.2289 44.3999 14.7125 39.9696 14.4309 40.2903C14.1494 40.6109 14.401 42.055 14.7649 42.2182C15.13 42.3796 22.4695 46.0979 22.597 45.8875C22.7245 45.6771 22.8223 44.7563 22.2289 44.3999ZM22.0814 41.3042C22.0814 41.3042 11.1658 33.5316 10.5368 33.6356C9.91592 33.7393 11.7705 38.0551 12.3074 38.2907C12.8432 38.5283 21.6928 43.4775 22.1236 43.4519C22.4848 43.4319 22.4065 41.6101 22.0814 41.3042ZM23.0545 46.8522C22.9345 46.688 16.9407 43.97 16.6296 44.2914C16.3173 44.6147 16.9001 46.9527 17.4934 47.3091C18.0868 47.6655 23.2596 49.2767 23.5758 49.2349C23.8889 49.1939 23.274 47.1578 23.0545 46.8522ZM23.9449 50.1491C23.9449 50.1491 17.6434 48.4366 17.1596 48.3751C16.6758 48.3137 17.1547 50.3866 17.7312 50.6749C18.3076 50.9632 23.6367 52.1549 23.6367 52.1549C23.7877 51.8795 24.0037 51.3878 24.1616 51.1272C24.3066 50.8878 24.1155 50.2516 23.9449 50.1491ZM23.2233 53.0598C23.2233 53.0598 17.8954 51.495 17.7241 51.6818C17.5539 51.8666 17.6331 53.5124 18.2414 53.9357C18.8517 54.3602 22.5203 54.8179 22.5203 54.8179L23.2233 53.0598ZM21.7644 56.111C21.7644 56.111 21.7644 55.9722 20.9609 55.8377C19.9884 55.6749 19.2147 54.9047 19.01 55.2426C18.8053 55.5804 18.4792 57.4543 18.9872 57.7594C19.4952 58.0645 20.9609 58.411 20.9609 58.411L21.7644 56.111ZM39.1397 36.3134C39.1397 36.3134 38.032 33.8664 35.4813 31.8736C32.9325 29.8819 27.3562 26.0166 25.6195 24.6838C23.8816 23.353 20.8533 19.5777 20.2003 19.1276C19.5474 18.6775 18.3533 17.7891 18.0645 18.0738C17.7744 18.3604 18.4876 25.577 19.6895 27.2206C20.8895 28.8629 22.5147 31.0476 23.2772 31.7926C24.0397 32.5376 30.9121 36.8391 31.6129 38.0658C32.3137 39.2924 32.4793 41.3194 32.4793 41.3194C34.2628 39.8104 36.7012 37.8913 39.1397 36.3134ZM20.192 29.8264C20.192 29.8264 20.6859 31.9794 21.4542 32.9201C22.2224 33.8607 26.7796 36.3134 26.7796 36.3134C26.7796 36.3134 26.3875 35.1011 26.2232 34.9445C26.0589 34.7879 22.9102 32.9177 22.4653 32.1766C22.0193 31.4374 21.1041 30.0845 20.7692 29.8254C20.4338 29.5714 20.2552 29.7221 20.192 29.8264ZM26.8572 39.2407C27.0887 39.2165 26.9704 37.5261 26.8275 37.3823C26.6845 37.2385 22.4073 34.4984 22.2617 34.6427C22.1173 34.785 22.3085 36.6825 22.5688 36.7809C22.8284 36.8763 26.4885 39.2774 26.8572 39.2407ZM27.2284 40.7276C27.2284 40.7276 22.6646 37.6705 22.3643 37.6903C22.0629 37.712 22.2199 38.9281 22.395 38.9753C22.5681 39.0213 26.7382 41.7287 26.9373 41.5876C27.1373 41.4497 27.3713 40.8714 27.2284 40.7276ZM27.187 42.8909C27.187 42.8909 22.8862 40.3078 22.7631 40.4629C22.64 40.618 22.956 42.2614 23.1321 42.5251C23.3082 42.7889 27.3785 44.4911 27.6931 44.3429C28.0103 44.1991 27.3577 42.9934 27.187 42.8909ZM23.0959 43.5408C22.7695 44.0795 23.4307 45.6115 23.6336 45.7044C23.8365 45.7973 26.6156 46.824 26.874 46.9212C27.1324 47.0185 27.5841 45.4308 27.3514 45.291C27.1187 45.1513 23.6295 43.3716 23.4178 43.3892C23.2073 43.405 23.186 43.3922 23.0959 43.5408ZM23.9698 47.057C23.8037 47.3311 24.223 49.3103 24.5752 49.4929C24.9274 49.6755 25.0253 49.6974 25.0518 49.658C25.1212 49.5522 25.381 49.0579 25.6546 48.6456C25.9641 48.1785 26.2828 47.7879 26.244 47.7646C25.9636 47.5988 24.1359 46.7829 23.9698 47.057ZM27.8982 36.7589C27.7751 36.914 27.4377 37.8068 27.6748 37.8913C27.9119 37.9757 31.2757 40.054 31.2514 39.8104C31.2252 39.5655 31.1657 38.8083 30.9491 38.5939C30.7329 38.3746 28.0224 36.6018 27.8982 36.7589ZM27.8918 39.0564C27.7218 39.2018 27.9593 40.7085 28.192 40.8482C28.4247 40.988 31.2826 42.1858 31.38 42.0731C31.4785 41.9585 31.4621 41.0297 31.2978 40.873C31.1366 40.7157 28.0117 38.9546 27.8918 39.0564ZM27.9029 41.7094C27.7552 41.7655 27.7523 42.3378 28.0211 42.4703C28.288 42.6016 30.4709 43.294 30.59 43.0495C30.709 42.805 30.7196 42.5954 30.549 42.493C30.3803 42.3916 28.6598 41.4162 27.9029 41.7094ZM29.6104 43.754C29.4104 43.5602 28.3801 43.5496 28.3254 43.6879C28.2695 43.8281 28.413 45.0492 28.6365 44.8069C28.7455 44.688 28.983 44.4357 29.1613 44.2637C29.3307 44.1021 29.6952 43.8365 29.6104 43.754Z" fill="#7F7F7F"/>
<path fill-rule="evenodd" clip-rule="evenodd" d="M22.0654 41.4263C21.8561 41.0952 10.6468 33.3752 10.4749 33.659C10.207 34.1011 11.9017 37.6942 12.2135 38.0395C12.5242 38.3867 21.8593 43.4775 22.129 43.4209C22.3987 43.3643 22.274 41.7543 22.0654 41.4263Z" fill="#7F7F7F"/>
<path fill-rule="evenodd" clip-rule="evenodd" d="M127.011 0.473856C127.529 0.636838 127.493 4.92696 127.078 6.28515C126.622 7.77607 124.738 12.0615 124.254 12.6884C123.022 14.2793 121.592 17.085 120.984 17.7052C116.999 21.7636 108.271 28.9652 108.188 28.5883C108.107 28.2103 109.624 24.9408 109.891 24.4228C110.159 23.9068 112.391 22.3946 115.707 19.26C116.482 18.5278 117.466 16.7699 117.466 16.7699C117.466 16.7699 116.828 16.7616 115.984 17.7939C114.521 19.5774 110.592 23.3011 110.387 23.0598C110.182 22.8185 111.161 16.7518 111.161 16.7518C111.161 16.7518 116.529 12.9844 118.557 10.5662C120.588 8.14681 123.04 3.89407 123.504 3.5128C123.974 3.12814 125.541 0.00914638 127.011 0.473856ZM124.659 14.5673C124.95 14.6368 124.243 20.2267 124.148 20.7132C124.019 21.3734 123.163 22.6307 122.423 23.478C121.967 24.0001 106.222 35.9566 105.995 35.6519C105.769 35.3472 107.745 30.5351 108.014 30.0554C108.282 29.5757 120.584 20.0726 121.989 18.229C123.344 16.4449 123.689 14.3384 124.659 14.5673ZM122.33 25.3613C122.46 25.698 121.353 29.7815 120.667 30.176C119.98 30.5706 105.595 40.1154 105.408 39.9699C105.222 39.8245 105.934 37.3223 106.109 36.836C106.285 36.3498 118.873 27.3488 120.131 26.4251C121.301 25.5653 122.201 25.0246 122.33 25.3613ZM104.859 44.1544C104.859 44.1544 112.468 39.8642 112.743 40.1902C113.018 40.5162 112.737 41.9563 112.37 42.1126C112.002 42.2669 104.582 45.8498 104.459 45.637C104.337 45.423 104.259 44.4993 104.859 44.1544ZM105.068 41.061C105.068 41.061 116.146 33.4907 116.773 33.6068C117.393 33.7212 115.452 38.003 114.909 38.2294C114.366 38.4578 105.415 43.2413 104.985 43.2075C104.622 43.1817 104.737 41.3606 105.068 41.061ZM103.984 46.5916C104.108 46.4297 110.159 43.8235 110.464 44.1508C110.769 44.48 110.14 46.8076 109.54 47.1525C108.939 47.4975 103.731 49.0129 103.415 48.965C103.103 48.918 103.759 46.8929 103.984 46.5916ZM103.029 49.872C103.029 49.872 109.368 48.277 109.853 48.2248C110.338 48.1726 109.819 50.2359 109.235 50.5143C108.653 50.7915 103.296 51.8844 103.296 51.8844C103.15 51.6062 102.944 51.1104 102.791 50.8468C102.651 50.6047 102.856 49.9712 103.029 49.872ZM103.694 52.796C103.694 52.796 109.057 51.33 109.225 51.52C109.391 51.708 109.28 53.3521 108.662 53.7648C108.044 54.1775 104.802 54.4499 104.802 54.4499L103.694 52.796ZM105.408 55.7276C105.541 55.4259 107.786 54.9198 107.866 55.0578C108.064 55.3995 108.354 57.2792 107.839 57.5757C107.325 57.8711 106.39 58.0277 106.39 58.0277L105.408 55.7276ZM87.6521 35.9824C87.6521 35.9824 89.2565 33.3238 91.8471 31.3791C94.4378 29.4343 100.094 25.673 101.858 24.3726C103.623 23.0741 106.727 19.3552 107.389 18.9177C108.05 18.4801 109.263 17.6137 109.547 17.9038C109.831 18.1959 108.975 25.3998 107.74 27.0212C106.506 28.6414 104.837 30.7957 104.06 31.526C103.284 32.2563 96.3215 36.43 95.5953 37.6442C94.869 38.8583 94.6623 40.8828 94.6623 40.8828L91.2455 38.1838L87.6521 35.9824ZM107.185 29.618C107.185 29.618 106.648 31.7623 105.861 32.6881C105.075 33.6139 100.465 35.9824 100.465 35.9824C100.465 35.9824 100.881 34.7777 101.05 34.6231C101.217 34.4697 104.404 32.6591 104.865 31.9254C105.325 31.1949 106.268 29.8587 106.608 29.606C106.948 29.3584 107.124 29.5126 107.185 29.618ZM100.331 38.9076C100.098 38.8801 100.251 37.1912 100.399 37.049C100.547 36.9068 104.878 34.2479 105.021 34.395C105.162 34.54 104.933 36.4346 104.672 36.5269C104.409 36.6184 100.699 38.9513 100.331 38.9076ZM99.9296 40.3883C99.9296 40.3883 104.555 37.4168 104.857 37.4412C105.158 37.4686 104.976 38.6826 104.802 38.7253C104.626 38.7692 100.402 41.3974 100.204 41.2537C100.006 41.11 99.7839 40.5293 99.9296 40.3883ZM99.9272 42.5531C99.9272 42.5531 104.283 40.0493 104.401 40.2079C104.521 40.3654 104.173 42.0024 103.99 42.2638C103.809 42.5241 99.7029 44.1504 99.3893 43.9974C99.0788 43.8453 99.7566 42.6512 99.9272 42.5531ZM104.009 43.2789C104.325 43.8237 103.632 45.3439 103.428 45.4329C103.223 45.5219 100.421 46.4975 100.16 46.5898C99.9002 46.6821 99.4793 45.086 99.7146 44.9507C99.9499 44.8154 103.477 43.1006 103.688 43.1223C103.9 43.141 103.922 43.1286 104.009 43.2789ZM103.065 46.7788C103.226 47.0561 102.769 49.0269 102.411 49.2038C102.055 49.3797 101.955 49.4008 101.931 49.3598C101.864 49.2527 101.614 48.7535 101.348 48.336C101.048 47.8631 100.737 47.4665 100.776 47.4439C101.06 47.2835 102.905 46.5016 103.065 46.7788ZM99.3385 36.4063C99.4586 36.5638 99.7786 37.4629 99.5399 37.5428C99.3012 37.6227 95.8941 39.6385 95.923 39.3953C95.954 39.151 96.0301 38.394 96.2507 38.1838C96.4692 37.9697 99.2173 36.2469 99.3385 36.4063ZM99.2985 38.7047C99.4657 38.8533 99.1972 40.3563 98.9618 40.4915C98.7265 40.6268 95.8421 41.7719 95.7469 41.6574C95.6506 41.541 95.6849 40.6126 95.8522 40.4592C96.0203 40.3027 99.1806 38.6006 99.2985 38.7047ZM99.2342 41.3581C99.3808 41.417 99.3708 41.9904 99.1014 42.1166C98.832 42.2428 96.6342 42.8943 96.5179 42.6488C96.4036 42.402 96.397 42.1923 96.5696 42.0931C96.7422 41.9939 98.4832 41.0505 99.2342 41.3581ZM97.4857 43.3707C97.6893 43.1808 98.7216 43.1888 98.7737 43.3281C98.8268 43.4694 98.6578 44.6886 98.4391 44.4421C98.3323 44.3212 98.0997 44.0644 97.9248 43.889C97.7606 43.723 97.3993 43.4517 97.4857 43.3707Z" fill="#7F7F7F"/>
<path fill-rule="evenodd" clip-rule="evenodd" d="M63.7814 31.8331C88.2364 31.8331 108.059 51.5688 108.059 75.9166C108.059 100.264 88.2364 120 63.7814 120C39.3265 120 19.5039 100.264 19.5039 75.9166C19.5039 51.5688 39.3265 31.8331 63.7814 31.8331ZM72.5346 65.9859L64.1328 40.2898L55.6832 65.9859H28.5811L50.5118 81.8906L42.0623 107.726L64.1328 91.7737L86.1556 107.726L77.706 81.8906L99.6844 65.9859H72.5346Z" fill="#7F7F7F"/>
</g>
<defs>
<clipPath id="clip0_1_38">
<rect width="128" height="128" fill="white"/>
</clipPath>
</defs>
</svg>
