<?xml version="1.0" encoding="UTF-8"?>
<svg width="192px" height="192px" viewBox="0 0 192 192" version="1.1" xmlns="http://www.w3.org/2000/svg" xmlns:xlink="http://www.w3.org/1999/xlink">
    <!-- Generator: Sketch 48.2 (47327) - http://www.bohemiancoding.com/sketch -->
    <title>192</title>
    <desc>Created with Sketch.</desc>
    <defs>
        <rect id="path-1" x="3.23352456e-15" y="-1.31838984e-15" width="192" height="192" rx="17"></rect>
        <radialGradient cx="51.7179489%" cy="31.231012%" fx="51.7179489%" fy="31.231012%" r="100%" id="radialGradient-3">
            <stop stop-color="#606D72" offset="0%"></stop>
            <stop stop-color="#0C0C0C" offset="100%"></stop>
        </radialGradient>
        <radialGradient cx="50%" cy="0%" fx="50%" fy="0%" r="100%" id="radialGradient-4">
            <stop stop-color="#222E3E" offset="0%"></stop>
            <stop stop-color="#000000" offset="100%"></stop>
        </radialGradient>
        <linearGradient x1="50%" y1="0%" x2="50%" y2="100%" id="linearGradient-5">
            <stop stop-color="#EFF4F7" offset="0%"></stop>
            <stop stop-color="#FFFFFF" offset="34.945849%"></stop>
            <stop stop-color="#96A0A4" offset="100%"></stop>
        </linearGradient>
        <path d="M44.6317836,157.463484 C64.146979,148.018479 85.8655029,136.212223 100.029758,124.563383 C115.138296,112.12746 130.718976,87.5704465 128.673028,68.8378532 C127.256603,55.6148461 124.108991,49.1607593 114.666154,41.2899218 C105.223318,33.4190843 96.252623,31.6875 86.1802641,31.6875 C80.6719428,31.6875 69.3405391,34.6784183 64.146979,37.98417 C54.3893813,43.3363396 47.4646346,54.0406786 47.7793958,64.5876009 C48.094157,74.5048562 56.5927098,81.4311932 66.6650687,81.4311932 C76.4226664,81.4311932 82.5605101,74.1900227 82.5605101,67.2636857 C82.5605101,60.1799319 75.793144,53.5684284 67.6093524,54.5129289 C65.8781657,54.6703456 62.7305535,55.9296796 61.3141281,55.9296796 C57.5369935,55.7722629 56.5927098,52.6239279 57.5369935,50.5775101 C58.6386577,48.2162588 60.3698444,45.3827573 62.2584117,43.3363396 C65.7207851,39.5583375 74.0619573,37.0396695 80.9867041,36.4100025 C91.3738242,35.465502 99.4002352,41.132505 103.17737,48.3736756 C106.482363,54.6703456 106.954504,61.1244324 106.954504,69.7823537 C106.954504,80.4866927 102.705228,95.1264506 96.8821454,105.358539 C83.3474132,128.971052 67.9241136,137.943807 43.6875,154.157732 L44.6317836,157.463484 Z M135.283014,52.3090943 C135.283014,56.7167634 138.430626,60.9670156 143.938947,60.9670156 C149.132507,60.9670156 152.4375,56.7167634 152.4375,52.3090943 C152.4375,48.0588421 149.132507,43.8085898 143.938947,43.8085898 C138.430626,43.8085898 135.283014,48.0588421 135.283014,52.3090943 L135.283014,52.3090943 Z M135.283014,86.7833628 C135.283014,91.1910318 138.430626,95.4412841 143.938947,95.4412841 C149.132507,95.4412841 152.4375,91.1910318 152.4375,86.7833628 C152.4375,82.5331105 149.132507,78.2828582 143.938947,78.2828582 C138.430626,78.2828582 135.283014,82.5331105 135.283014,86.7833628 L135.283014,86.7833628 Z" id="path-6"></path>
        <filter x="-13.8%" y="-5.8%" width="127.6%" height="119.2%" filterUnits="objectBoundingBox" id="filter-7">
            <feOffset dx="0" dy="6" in="SourceAlpha" result="shadowOffsetOuter1"></feOffset>
            <feGaussianBlur stdDeviation="4" in="shadowOffsetOuter1" result="shadowBlurOuter1"></feGaussianBlur>
            <feColorMatrix values="0 0 0 0 0   0 0 0 0 0   0 0 0 0 0  0 0 0 0.2 0" type="matrix" in="shadowBlurOuter1"></feColorMatrix>
        </filter>
    </defs>
    <g id="Icon" stroke="none" stroke-width="1" fill="none" fill-rule="evenodd">
        <g id="192">
            <mask id="mask-2" fill="white">
                <use xlink:href="#path-1"></use>
            </mask>
            <use id="Mask" fill="#FFFFFE" xlink:href="#path-1"></use>
            <g id="Icon" mask="url(#mask-2)">
                <g>
                    <rect id="Rectangle-25" fill="url(#radialGradient-3)" x="0" y="0" width="192" height="192"></rect>
                    <rect id="bg" fill="url(#radialGradient-4)" x="0" y="0" width="192" height="192"></rect>
                    <g id="ð„¢">
                        <use fill="black" fill-opacity="1" filter="url(#filter-7)" xlink:href="#path-6"></use>
                        <use fill="url(#linearGradient-5)" fill-rule="evenodd" xlink:href="#path-6"></use>
                    </g>
                </g>
            </g>
        </g>
    </g>
</svg>