<?xml version="1.0" encoding="UTF-8"?>
<svg width="152px" height="152px" viewBox="0 0 152 152" version="1.1" xmlns="http://www.w3.org/2000/svg" xmlns:xlink="http://www.w3.org/1999/xlink" style="background: #1C2C56;">
    <!-- Generator: Sketch 48.2 (47327) - http://www.bohemiancoding.com/sketch -->
    <title>76</title>
    <desc>Created with Sketch.</desc>
    <defs>
        <linearGradient x1="50%" y1="0%" x2="50%" y2="100%" id="linearGradient-1">
            <stop stop-color="#FFFFFF" offset="0%"></stop>
            <stop stop-color="#ACABAB" offset="100%"></stop>
        </linearGradient>
        <linearGradient x1="50%" y1="0%" x2="50%" y2="100%" id="linearGradient-2">
            <stop stop-color="#F5515F" offset="0%"></stop>
            <stop stop-color="#9F041B" offset="100%"></stop>
        </linearGradient>
        <linearGradient x1="50%" y1="0%" x2="50%" y2="100%" id="linearGradient-3">
            <stop stop-color="#757575" offset="0%"></stop>
            <stop stop-color="#8C8C8C" offset="100%"></stop>
        </linearGradient>
        <linearGradient x1="50%" y1="0%" x2="50%" y2="100%" id="linearGradient-4">
            <stop stop-color="#FFFFFF" offset="0%"></stop>
            <stop stop-color="#979797" offset="100%"></stop>
        </linearGradient>
        <path d="M105.888559,118.854827 C94.6101327,130.085344 69.4279459,152.551537 69.4279459,152.551537 C69.4279459,152.551537 76.0183907,146.27459 78.1070225,134.393643 C80.1956543,122.512696 72.2814206,83.2852706 72.2814206,83.2852706 C72.2814206,83.2852706 90.6911599,85.6815844 113.383438,81.7131258 C136.075716,77.7446672 152.774882,67.7743731 152.774882,67.7743731 C152.774882,67.7743731 122.907575,101.908106 105.888559,118.854827 Z" id="path-5"></path>
        <filter x="-14.4%" y="-9.4%" width="119.2%" height="118.9%" filterUnits="objectBoundingBox" id="filter-6">
            <feOffset dx="-4" dy="0" in="SourceAlpha" result="shadowOffsetOuter1"></feOffset>
            <feGaussianBlur stdDeviation="2" in="shadowOffsetOuter1" result="shadowBlurOuter1"></feGaussianBlur>
            <feColorMatrix values="0 0 0 0 0   0 0 0 0 0   0 0 0 0 0  0 0 0 0.5 0" type="matrix" in="shadowBlurOuter1"></feColorMatrix>
        </filter>
    </defs>
    <g id="Icon" stroke="none" stroke-width="1" fill="none" fill-rule="evenodd">
        <g id="76">
            <rect id="Rectangle-6" fill="url(#linearGradient-1)" x="0" y="0" width="152" height="152"></rect>
            <path d="M40.452979,66.5568865 C42.1721543,66.7063801 44.0034223,66.7063801 45.9468379,66.5568865 C47.8902535,66.407393 49.7028351,65.9776057 51.3846371,65.2675115 C53.066439,64.5574173 54.4492332,63.5296649 55.5330611,62.1842233 C56.6168891,60.8387818 57.1587949,59.0448866 57.1587949,56.802484 C57.1587949,53.4388801 56.0376104,50.8601557 53.7952078,49.0662337 C51.5528052,47.2723116 48.9740809,46.375364 46.0589575,46.375364 C42.0226328,46.375364 38.9767483,47.702099 36.9212126,50.3556087 C34.8656768,53.0091185 33.8752972,56.3539855 33.950044,60.3903102 L18.813902,60.3903102 C18.9633956,56.3539855 19.6921655,52.6727631 21.0002337,49.3465326 C22.3083018,46.0203021 24.1395698,43.1612816 26.4940926,40.7693855 C28.8486153,38.3774894 31.6702629,36.527535 34.9591201,35.2194668 C38.2479773,33.9113986 41.9105132,33.2573743 45.9468379,33.2573743 C49.0862016,33.2573743 52.2255181,33.7245345 55.3648818,34.6588689 C58.5042454,35.5932034 61.3258931,36.994684 63.8299093,38.8633528 C66.3339256,40.7320217 68.370744,43.0117634 69.9404259,45.7026466 C71.5101077,48.3935297 72.2949368,51.4954734 72.2949368,55.0085709 C72.2949368,58.8206553 71.3793028,62.1842088 69.5480074,65.0993321 C67.7167119,68.0144555 64.9698099,69.9952148 61.307219,71.0416693 L61.307219,71.2659085 C65.6425307,72.2376163 69.043457,74.330494 71.5100998,77.5446044 C73.9767427,80.7587148 75.2100456,84.6081149 75.2100456,89.0929201 C75.2100456,93.2039915 74.4065301,96.8665275 72.7994749,100.080638 C71.1924197,103.294748 69.0434828,105.985591 66.3525996,108.153247 C63.6617165,110.320903 60.5597728,111.965307 57.0466753,113.086508 C53.5335779,114.207709 49.8710419,114.768302 46.0589575,114.768302 C41.648899,114.768302 37.6313213,114.132964 34.0061037,112.862269 C30.3808862,111.591574 27.2976289,109.74162 24.7562392,107.31235 C22.2148496,104.883081 20.2527768,101.911942 18.8699618,98.3988444 C17.4871469,94.8857469 16.8331226,90.8494828 16.9078694,86.2899308 L32.0440113,86.2899308 C32.118758,88.3828399 32.4551134,90.3822856 33.0530874,92.2883278 C33.6510614,94.19437 34.5106362,95.8387739 35.6318375,97.2215889 C36.7530388,98.6044038 38.1545194,99.7069019 39.8363214,100.529116 C41.5181233,101.35133 43.517569,101.762431 45.8347184,101.762431 C49.4225625,101.762431 52.4497606,100.659933 54.9164035,98.4549042 C57.3830464,96.2498749 58.6163493,93.2413632 58.6163493,89.4292788 C58.6163493,86.4394086 58.0370707,84.1596669 56.878496,82.589985 C55.7199213,81.0203032 54.2436951,79.8804323 52.449773,79.1703381 C50.6558509,78.460244 48.693778,78.049143 46.5634956,77.9370229 C44.4332131,77.8249028 42.3963946,77.7688435 40.452979,77.7688435 L40.452979,66.5568865 Z M79.5827089,73.732539 C79.5827089,66.1083701 80.3488516,59.6989322 81.88116,54.5040328 C83.4134685,49.3091334 85.4876598,45.1420644 88.1037962,42.0027008 C90.7199325,38.8633371 93.7658171,36.6209681 97.2415411,35.2755266 C100.717265,33.930085 104.398488,33.2573743 108.285319,33.2573743 C112.246897,33.2573743 115.965492,33.930085 119.441216,35.2755266 C122.91694,36.6209681 125.981511,38.8633371 128.635021,42.0027008 C131.28853,45.1420644 133.381408,49.3091334 134.913717,54.5040328 C136.446025,59.6989322 137.212168,66.1083701 137.212168,73.732539 C137.212168,81.5809481 136.446025,88.1398774 134.913717,93.4095235 C133.381408,98.6791696 131.28853,102.883611 128.635021,106.022975 C125.981511,109.162339 122.91694,111.404708 119.441216,112.750149 C115.965492,114.095591 112.246897,114.768302 108.285319,114.768302 C104.398488,114.768302 100.717265,114.095591 97.2415411,112.750149 C93.7658171,111.404708 90.7199325,109.162339 88.1037962,106.022975 C85.4876598,102.883611 83.4134685,98.6791696 81.88116,93.4095235 C80.3488516,88.1398774 79.5827089,81.5809481 79.5827089,73.732539 Z M95.5036878,73.732539 C95.5036878,75.9749416 95.5784334,78.6844708 95.7279269,81.8612078 C95.8774204,85.0379449 96.3445806,88.1025158 97.1294215,91.0550125 C97.9142624,94.0075093 99.1662518,96.5301744 100.885427,98.6230835 C102.604602,100.715993 105.071208,101.762431 108.285319,101.762431 C111.574176,101.762431 114.096841,100.715993 115.85339,98.6230835 C117.609938,96.5301744 118.880614,94.0075093 119.665455,91.0550125 C120.450296,88.1025158 120.917456,85.0379449 121.06695,81.8612078 C121.216443,78.6844708 121.291189,75.9749416 121.291189,73.732539 C121.291189,72.3870975 121.272502,70.7613799 121.235129,68.8553377 C121.197756,66.9492955 121.048264,64.9872227 120.786651,62.9690603 C120.525037,60.950898 120.151309,58.9514523 119.665455,56.9706633 C119.179601,54.9898744 118.450831,53.2146656 117.479123,51.6449838 C116.507416,50.0753019 115.274113,48.8046262 113.779178,47.8329184 C112.284243,46.8612106 110.452975,46.375364 108.285319,46.375364 C106.117663,46.375364 104.305081,46.8612106 102.84752,47.8329184 C101.389958,48.8046262 100.194028,50.0753019 99.2596934,51.6449838 C98.3253589,53.2146656 97.596589,54.9898744 97.0733617,56.9706633 C96.5501345,58.9514523 96.1764063,60.950898 95.9521661,62.9690603 C95.7279258,64.9872227 95.5971209,66.9492955 95.5597476,68.8553377 C95.5223742,70.7613799 95.5036878,72.3870975 95.5036878,73.732539 Z" id="-31" fill="url(#linearGradient-2)"></path>
            <polygon id="Path-91" fill="url(#linearGradient-3)" points="152.667281 67.8185769 152.402639 152.339823 69.3761809 152.145559"></polygon>
            <g id="page-turn-2">
                <use fill="black" fill-opacity="1" filter="url(#filter-6)" xlink:href="#path-5"></use>
                <use fill="url(#linearGradient-4)" fill-rule="evenodd" xlink:href="#path-5"></use>
            </g>
        </g>
    </g>
</svg>