<svg width="95" height="95" viewBox="0 0 95 95" fill="none" xmlns="http://www.w3.org/2000/svg">
<path d="M10.9297 56.4434H44.6699C46.3301 56.4434 47.5996 55.1738 47.5996 53.5137C47.5996 51.9512 46.2813 50.6328 44.6699 50.6328H10.9297C9.31838 50.6328 8 51.9512 8 53.5137C8 55.1738 9.26958 56.4434 10.9297 56.4434Z" fill="#F14D5C"/>
<path d="M10.9297 42.625H44.6699C46.3301 42.625 47.5996 41.3066 47.5996 39.6953C47.5996 38.084 46.2813 36.8145 44.6699 36.8145H10.9297C9.31838 36.8145 8 38.084 8 39.6953C8 41.3066 9.26958 42.625 10.9297 42.625Z" fill="#F14D5C"/>
<path d="M10.9297 28.8555H44.6699C46.2813 28.8555 47.5996 27.5371 47.5996 25.9258C47.5996 24.3145 46.2813 22.9961 44.6699 22.9961H10.9297C9.31838 22.9961 8 24.3145 8 25.9258C8 27.5371 9.31838 28.8555 10.9297 28.8555Z" fill="#F14D5C"/>
<path d="M86.9551 26.7559V12.1563C86.9551 10.0566 85.2461 8.64064 83.1953 9.08014L63.0293 13.4746C60.3926 14.0606 58.9766 15.4277 58.9766 17.7227V60.6914C59.2207 62.4492 58.3906 63.5723 56.877 63.8652L50.7735 65.1348C42.9121 66.7949 39.25 70.7988 39.25 76.7559C39.25 82.7618 43.8887 86.961 50.3828 86.961C56.0957 86.961 64.7383 82.7129 64.7383 71.3848V36.0332C64.7383 34.0801 65.0313 33.7871 66.7403 33.4453L84.7578 29.4414C86.125 29.1484 86.9551 28.1231 86.9551 26.7559Z" fill="#F14D5C"/>
</svg>
