<svg width="95" height="95" viewBox="0 0 95 95" fill="none" xmlns="http://www.w3.org/2000/svg">
<path d="M4.63868 90.498H12.2559C15.1856 90.498 16.8946 88.789 16.8946 85.8593V20.7226C16.8946 17.7929 15.1856 16.0839 12.2559 16.0839H4.63868C1.70898 16.0839 0 17.7929 0 20.7226V85.8593C0 88.789 1.70898 90.498 4.63868 90.498ZM26.3184 90.498H42.334C45.3125 90.498 47.0215 88.789 47.0215 85.8593V33.8574C47.0215 30.9277 45.3125 29.2187 42.334 29.2187H26.3184C23.3887 29.2187 21.6797 30.9277 21.6797 33.8574V85.8593C21.6797 88.789 23.3887 90.498 26.3184 90.498ZM30.4688 43.7207C28.9063 43.7207 27.7344 42.5488 27.7344 41.0351C27.7344 39.5703 28.9063 38.3984 30.4688 38.3984H38.3301C39.8438 38.3984 40.9668 39.5703 40.9668 41.0351C40.9668 42.5488 39.8438 43.7207 38.3301 43.7207H30.4688ZM30.4688 81.3671C28.9063 81.3671 27.7344 80.1464 27.7344 78.6816C27.7344 77.2167 28.9063 76.0449 30.4688 76.0449H38.3301C39.8438 76.0449 40.9668 77.2167 40.9668 78.6816C40.9668 80.1464 39.8438 81.3671 38.3301 81.3671H30.4688ZM56.4453 90.498H66.4063C69.3848 90.498 71.0938 88.789 71.0938 85.8593V9.6386C71.0938 6.7089 69.3848 5 66.4063 5H56.4453C53.4668 5 51.8067 6.7089 51.8067 9.6386V85.8593C51.8067 88.789 53.4668 90.498 56.4453 90.498ZM83.3985 90.6445L89.9903 89.6679C92.8714 89.2285 94.3364 87.4218 93.9944 84.4921L86.1817 19.8925C85.8887 16.9628 84.0332 15.4003 81.0547 15.8398L74.4629 16.8164C71.5821 17.2558 70.1172 19.0625 70.459 21.9921L78.2715 86.5918C78.6133 89.5214 80.4199 91.0839 83.3985 90.6445Z" fill="#F14D5C"/>
</svg>
