<svg width="95" height="95" viewBox="0 0 95 95" fill="none" xmlns="http://www.w3.org/2000/svg">
<path fill-rule="evenodd" clip-rule="evenodd" d="M22.9714 9.51758H71.2045C71.0936 5.9893 68.9606 4 65.3009 4H28.8751C25.2155 4 23.0824 5.9893 22.9714 9.51758Z" fill="#F14D5C"/>
<path fill-rule="evenodd" clip-rule="evenodd" d="M14.9683 21.0193C16.3692 20.775 17.8652 20.6504 19.4512 20.6504H74.7735C76.3407 20.6504 77.8202 20.7731 79.2069 21.0137C78.7782 16.7878 76.0144 14.4492 71.4043 14.4492H22.7715C18.1593 14.4492 15.3951 16.7899 14.9683 21.0193Z" fill="#F14D5C"/>
<path fill-rule="evenodd" clip-rule="evenodd" d="M74.7735 90.1328H19.4512C11.1016 90.1328 7 86.08 7 77.8769V38.8144C7 30.6113 11.1016 26.5586 19.4512 26.5586H74.7735C83.0742 26.5586 87.2246 30.6601 87.2246 38.8144V77.8769C87.2246 86.08 83.0742 90.1328 74.7735 90.1328ZM37.9571 74.9961C39.1289 76.5586 40.3496 77.1445 41.8633 77.1445C43.377 77.1445 44.6465 76.4609 45.5254 74.9961L62.9571 47.457C63.4942 46.5781 64.0801 45.5527 64.0801 44.5761C64.0801 42.5253 62.2735 41.207 60.3692 41.207C59.1973 41.207 58.0742 41.8906 57.2442 43.2578L41.668 68.4531L34.6367 59.0781C33.5625 57.6621 32.586 57.2226 31.3653 57.2226C29.3633 57.2226 27.8496 58.8339 27.8496 60.8359C27.8496 61.8125 28.2403 62.789 28.875 63.6679L37.9571 74.9961Z" fill="#F14D5C"/>
</svg>
