<svg width="95" height="95" viewBox="0 0 95 95" fill="none" xmlns="http://www.w3.org/2000/svg">
<path d="M66.3789 75.5039C66.3789 81.5098 71.0176 85.709 77.5117 85.709C83.2246 85.709 91.8672 81.461 91.8672 70.1329V31.3144C91.8672 29.8008 90.5977 28.5312 89.0352 28.5312C87.4727 28.5312 86.2032 29.8008 86.2032 31.3144V59.4395C86.2032 61.1974 85.5196 62.3204 84.0059 62.6622L77.9024 63.9316C70.041 65.543 66.3789 69.5958 66.3789 75.5039Z" fill="#F14D5C"/>
<path d="M38.0586 55.9726C38.0586 61.9785 42.6973 66.1777 49.1914 66.1777C54.9043 66.1777 63.5469 61.9297 63.5469 50.6016V11.7832C63.5469 10.2695 62.2285 9 60.7149 9C59.1524 9 57.8828 10.2695 57.8828 11.7832V39.9082C57.8828 41.666 57.1992 42.789 55.6856 43.1308L49.5821 44.4004C41.7207 46.0117 38.0586 50.0644 38.0586 55.9726Z" fill="#F14D5C"/>
<path d="M3 75.5039C3 81.5098 7.63868 85.709 14.1328 85.709C19.8457 85.709 28.4883 81.461 28.4883 70.1329V31.3144C28.4883 29.8008 27.2188 28.5312 25.6563 28.5312C24.0938 28.5312 22.8242 29.8008 22.8242 31.3144V59.4395C22.8242 61.1974 22.1406 62.3204 20.627 62.6622L14.5235 63.9316C6.66208 65.543 3 69.5958 3 75.5039Z" fill="#F14D5C"/>
</svg>
