<svg width="95" height="95" viewBox="0 0 95 95" fill="none" xmlns="http://www.w3.org/2000/svg">
<path d="M43.7188 87.3711H50.6036C52.5567 87.3711 54.0215 86.1993 54.461 84.295L56.4629 75.75C58.0743 75.2129 59.5879 74.627 60.9551 73.9434L68.4258 78.5332C69.9883 79.5098 71.8926 79.3633 73.211 78.045L78.045 73.211C79.3633 71.8926 79.5586 69.8907 78.4844 68.2793L73.9434 60.8575C74.627 59.4903 75.2618 57.9766 75.7012 56.5606L84.3438 54.5098C86.1993 54.1192 87.3223 52.6543 87.3223 50.6524V43.9141C87.3223 42.0098 86.1993 40.545 84.3438 40.1543L75.7989 38.0547C75.2618 36.3946 74.5782 34.9297 74.0411 33.709L78.5821 26.1407C79.6075 24.5293 79.5098 22.6739 78.1426 21.3067L73.211 16.4727C71.8438 15.252 70.1836 15.0079 68.5723 15.8868L60.9551 20.5743C59.6368 19.8907 58.1231 19.3047 56.4629 18.7676L54.461 10.0762C54.0215 8.1719 52.5567 7 50.6036 7H43.7188C41.7657 7 40.3008 8.1719 39.9102 10.0762L37.8594 18.67C36.2969 19.2071 34.6856 19.793 33.3672 20.5254L25.7989 15.8868C24.1387 15.0079 22.4786 15.2032 21.1114 16.4727L16.1797 21.3067C14.8125 22.6739 14.7149 24.5293 15.7403 26.1407L20.2813 33.709C19.7442 34.9297 19.0606 36.3946 18.5723 38.0547L10.0273 40.1543C8.12304 40.545 7 42.0098 7 43.9141V50.6524C7 52.6543 8.12304 54.1192 10.0273 54.5098L18.67 56.5606C19.0606 57.9766 19.6953 59.4903 20.3789 60.8575L15.8379 68.2793C14.7637 69.8907 14.959 71.8926 16.2774 73.211L21.1114 78.045C22.4297 79.3633 24.334 79.5098 25.9453 78.5332L33.4161 73.9434C34.7344 74.627 36.2969 75.2129 37.8594 75.75L39.9102 84.295C40.3008 86.1993 41.7657 87.3711 43.7188 87.3711ZM47.1856 60.6133C39.7637 60.6133 33.7579 54.5098 33.7579 47.1368C33.7579 39.8125 39.7637 33.7579 47.1856 33.7579C54.5586 33.7579 60.5645 39.8125 60.5645 47.1368C60.5645 54.5098 54.5586 60.6133 47.1856 60.6133Z" fill="#F14D5C"/>
</svg>
