<svg width="95" height="95" viewBox="0 0 95 95" fill="none" xmlns="http://www.w3.org/2000/svg">
<path d="M18.0215 50.9483V14.0909H30.7168V50.9483C30.7168 52.837 29.5425 53.5513 28.316 53.5513H25.3687V81.2862H23.3243V53.5513H20.4224C19.1958 53.5513 18.0215 52.837 18.0215 50.9483ZM40.875 50.9483V14.0909H53.5703V50.9483C53.5703 52.837 52.4414 53.5513 51.166 53.5513H48.2676V81.2862H46.2232V53.5513H43.3213C42.0494 53.5513 40.875 52.837 40.875 50.9483ZM63.7705 50.9483V14.0909H76.4658V50.9483C76.4658 52.837 75.2915 53.5513 74.065 53.5513H71.1631V81.2862H69.1187V53.5513H66.1748C64.9449 53.5513 63.7705 52.837 63.7705 50.9483ZM12.9991 81.1954H81.4883C88.0215 81.1954 91.4873 77.6387 91.4873 71.2066V23.9888C91.4873 17.5567 88.0215 14 81.4883 14H12.9991C6.46928 14 3 17.4659 3 23.9888V71.2066C3 77.7296 6.46928 81.1954 12.9991 81.1954Z" fill="#F14D5C"/>
</svg>
